<svg width="25" height="25" viewBox="0 0 25 25" fill="none" xmlns="http://www.w3.org/2000/svg">
<rect x="4.3175" y="10.2198" width="17" height="11" rx="1.5" fill="#7000FF"/>
<rect x="4.3175" y="10.2198" width="17" height="11" rx="1.5" stroke="#7000FF"/>
<rect x="5.41748" y="11.3198" width="14.8" height="8.8" rx="1" fill="#F0F0FF"/>
<mask id="path-3-inside-1_1_18531" fill="white">
<path d="M5.82751 5.31985C5.82751 4.43619 6.54386 3.71985 7.42751 3.71985H18.2175C19.1012 3.71985 19.8175 4.43619 19.8175 5.31985H5.82751Z"/>
</mask>
<path d="M5.82751 5.31985C5.82751 3.55254 7.2602 2.11985 9.02751 2.11985H16.6175C18.3848 2.11985 19.8175 3.55254 19.8175 5.31985C19.8175 5.31985 19.1012 5.31985 18.2175 5.31985H7.42751C6.54386 5.31985 5.82751 5.31985 5.82751 5.31985ZM19.8175 5.31985H5.82751H19.8175ZM5.82751 5.31985V3.71985V5.31985ZM19.8175 3.71985V5.31985V3.71985Z" fill="#7000FF" mask="url(#path-3-inside-1_1_18531)"/>
<mask id="path-5-inside-2_1_18531" fill="white">
<path d="M4.82751 8.31985C4.82751 7.43619 5.54386 6.71985 6.42751 6.71985H19.2075C20.0912 6.71985 20.8075 7.43619 20.8075 8.31985H4.82751Z"/>
</mask>
<path d="M4.82751 8.31985C4.82751 7.43619 5.54386 6.71985 6.42751 6.71985H19.2075C20.0912 6.71985 20.8075 7.43619 20.8075 8.31985H4.82751Z" fill="#7000FF"/>
<path d="M4.82751 8.31985C4.82751 6.55254 6.2602 5.11985 8.02751 5.11985H17.6075C19.3748 5.11985 20.8075 6.55254 20.8075 8.31985C20.8075 8.31985 20.0912 8.31985 19.2075 8.31985H6.42751C5.54386 8.31985 4.82751 8.31985 4.82751 8.31985ZM20.8075 8.31985H4.82751H20.8075ZM4.82751 8.31985V6.71985V8.31985ZM20.8075 6.71985V8.31985V6.71985Z" fill="#7000FF" mask="url(#path-5-inside-2_1_18531)"/>
</svg>
