<svg width="19" height="17" viewBox="0 0 19 17" fill="none" xmlns="http://www.w3.org/2000/svg">
<path d="M0.617554 5.58471C0.617554 2.92282 2.76772 0.719849 5.48241 0.719849C7.6044 0.719849 8.97676 2.07861 9.61755 2.90658C10.2584 2.07861 11.6308 0.719849 13.7527 0.719849C16.4682 0.719849 18.6176 2.92287 18.6176 5.58471C18.6176 6.74972 18.1504 7.90607 17.471 8.98485C16.7892 10.0674 15.8696 11.1101 14.9076 12.0575C13.5743 13.3706 12.0933 14.5585 11.031 15.4105C10.5794 15.7727 10.2035 16.0742 9.94685 16.2988C9.75825 16.4637 9.47681 16.4637 9.2883 16.2988C9.0316 16.0742 8.6557 15.7727 8.20414 15.4105C7.14186 14.5585 5.66081 13.3706 4.32752 12.0575C3.36557 11.1101 2.44591 10.0674 1.76414 8.98485C1.08479 7.90607 0.617554 6.74972 0.617554 5.58471ZM5.48241 1.71985C3.32684 1.71985 1.61755 3.46823 1.61755 5.58471C1.61755 6.48728 1.98308 7.45592 2.61032 8.45193C3.23514 9.44405 4.09588 10.4258 5.0292 11.345C6.32788 12.624 7.70178 13.7248 8.75151 14.5659C9.07483 14.825 9.3674 15.0594 9.61755 15.2668C9.86765 15.0594 10.1603 14.825 10.4836 14.5659C11.5334 13.7248 12.9073 12.624 14.2059 11.345C15.1393 10.4258 16 9.44405 16.6248 8.45193C17.2521 7.45592 17.6176 6.48728 17.6176 5.58471C17.6176 3.46818 15.909 1.71985 13.7527 1.71985C11.6582 1.71985 10.4357 3.42196 10.1209 3.93013C9.89025 4.30235 9.34482 4.30234 9.11425 3.93012C8.79945 3.42195 7.57699 1.71985 5.48241 1.71985Z" fill="#1F2026"/>
</svg>
