<svg width="25" height="25" viewBox="0 0 25 25" fill="none" xmlns="http://www.w3.org/2000/svg">
<g clip-path="url(#clip0_1_18557)">
<path fill-rule="evenodd" clip-rule="evenodd" d="M8.12543 6.21985C5.89478 6.21985 4.12543 8.02891 4.12543 10.2198C4.12543 11.148 4.50227 12.1634 5.17413 13.2303C5.84235 14.2914 6.76691 15.3472 7.7767 16.3417C9.18312 17.7268 10.6572 18.9077 11.7962 19.8201C12.0988 20.0625 12.3777 20.2859 12.6254 20.4892C12.8731 20.2859 13.152 20.0625 13.4546 19.8201C14.5936 18.9077 16.0677 17.7268 17.4741 16.3417C18.4839 15.3472 19.4085 14.2914 20.0767 13.2303C20.7486 12.1634 21.1254 11.148 21.1254 10.2198C21.1254 8.02883 19.3568 6.21985 17.1254 6.21985C14.9727 6.21985 13.6992 7.92211 13.3516 8.46727C13.0143 8.9964 12.2365 8.99638 11.8992 8.46727C11.5516 7.9221 10.2782 6.21985 8.12543 6.21985ZM2.62543 10.2198C2.62543 7.21079 5.05608 4.71985 8.12543 4.71985C10.3569 4.71985 11.8503 6.02192 12.6254 6.93566C13.4005 6.02192 14.894 4.71985 17.1254 4.71985C20.1956 4.71985 22.6254 7.21087 22.6254 10.2198C22.6254 11.5416 22.096 12.8387 21.346 14.0296C20.5923 15.2264 19.5794 16.3737 18.5267 17.4104C17.0683 18.8467 15.4334 20.1582 14.2756 21.087C13.7903 21.4763 13.3888 21.7984 13.1193 22.0342C12.8365 22.2817 12.4143 22.2817 12.1315 22.0342C11.862 21.7984 11.4605 21.4763 10.9752 21.087C9.81744 20.1582 8.18255 18.8467 6.72416 17.4104C5.67145 16.3737 4.65851 15.2264 3.90485 14.0296C3.15484 12.8387 2.62543 11.5416 2.62543 10.2198Z" fill="#1F2026"/>
</g>
<defs>
<clipPath id="clip0_1_18557">
<rect width="24" height="24" fill="white" transform="translate(0.625427 0.719849)"/>
</clipPath>
</defs>
</svg>
