<svg width="25" height="25" viewBox="0 0 25 25" fill="none" xmlns="http://www.w3.org/2000/svg">
<g opacity="0.87" clip-path="url(#clip0_1_18564)">
<path fill-rule="evenodd" clip-rule="evenodd" d="M9.67542 7.21985C9.67542 5.60764 10.9156 4.21985 12.6754 4.21985C14.4352 4.21985 15.6754 5.60764 15.6754 7.21985V8.21985H9.67542V7.21985ZM8.17542 9.71985V12.2198H9.67542V9.71985H15.6754V12.2198H17.1754V9.71985H19.1754V20.4698C19.1754 20.884 18.8396 21.2198 18.4254 21.2198H6.92542C6.51121 21.2198 6.17542 20.884 6.17542 20.4698V9.71985H8.17542ZM8.17542 8.21985V7.21985C8.17542 4.83206 10.0353 2.71985 12.6754 2.71985C15.3156 2.71985 17.1754 4.83206 17.1754 7.21985V8.21985H19.9254H20.6754V8.96985V20.4698C20.6754 21.7124 19.668 22.7198 18.4254 22.7198H6.92542C5.68278 22.7198 4.67542 21.7124 4.67542 20.4698V8.96985V8.21985H5.42542H8.17542Z" fill="#1F2026"/>
</g>
<defs>
<clipPath id="clip0_1_18564">
<rect width="24" height="24" fill="white" transform="translate(0.675415 0.719849)"/>
</clipPath>
</defs>
</svg>
