<svg width="25" height="25" viewBox="0 0 25 25" fill="none" xmlns="http://www.w3.org/2000/svg">
<g clip-path="url(#clip0_1_18550)">
<path fill-rule="evenodd" clip-rule="evenodd" d="M12.5654 3.71985C10.3563 3.71985 8.56543 5.51071 8.56543 7.71985V8.71985C8.56543 10.9289 10.3563 12.7198 12.5654 12.7198C14.7745 12.7198 16.5654 10.9289 16.5654 8.71985V7.71985C16.5654 5.51071 14.7745 3.71985 12.5654 3.71985ZM10.0654 7.71985C10.0654 6.33914 11.1847 5.21985 12.5654 5.21985C13.9461 5.21985 15.0654 6.33914 15.0654 7.71985V8.71985C15.0654 10.1006 13.9461 11.2198 12.5654 11.2198C11.1847 11.2198 10.0654 10.1006 10.0654 8.71985V7.71985ZM6.06775 20.0884C6.53864 16.9775 9.58346 15.2198 12.5676 15.2198C15.5512 15.2198 18.5964 16.9775 19.0673 20.0884C19.07 20.1064 19.0679 20.117 19.0654 20.1246C19.0624 20.1335 19.0557 20.1467 19.0413 20.1618C19.0107 20.1939 18.9548 20.2237 18.8825 20.2237H6.25261C6.1803 20.2237 6.12441 20.1939 6.09381 20.1618C6.07937 20.1467 6.07269 20.1335 6.0697 20.1246C6.06717 20.117 6.06504 20.1063 6.06775 20.0884ZM12.5676 13.7198C9.13864 13.7198 5.2058 15.7602 4.58465 19.8639C4.42167 20.9406 5.3227 21.7237 6.25261 21.7237H18.8825C19.8124 21.7237 20.7134 20.9406 20.5504 19.8639C19.9292 15.7602 15.996 13.7198 12.5676 13.7198Z" fill="#1F2026"/>
</g>
<defs>
<clipPath id="clip0_1_18550">
<rect width="24" height="24" fill="white" transform="translate(0.56543 0.719849)"/>
</clipPath>
</defs>
</svg>
