<svg width="248" height="33" viewBox="0 0 248 33" fill="none" xmlns="http://www.w3.org/2000/svg">
<g clip-path="url(#clip0_1_18505)">
<path d="M32.594 16.708C32.594 7.87801 25.4358 0.719849 16.6058 0.719849C7.77571 0.719849 0.617554 7.87801 0.617554 16.708C0.617554 25.5381 7.77571 32.6962 16.6058 32.6962C25.4358 32.6962 32.594 25.5381 32.594 16.708Z" fill="#FFFF00"/>
<path d="M4.36953 15.5131C3.8973 12.835 3.66119 11.4959 4.00202 10.3811C4.30182 9.40049 4.90437 8.53997 5.72331 7.92286C6.65431 7.22129 7.99337 6.98518 10.6715 6.51296L18.7616 5.08645C21.4397 4.61422 22.7788 4.37811 23.8936 4.71894C24.8742 5.01874 25.7347 5.62129 26.3518 6.44023C27.0534 7.37123 27.2895 8.71029 27.7617 11.3884L28.8713 17.6809C29.3435 20.3591 29.5796 21.6981 29.2388 22.8129C28.939 23.7935 28.3364 24.6541 27.5175 25.2712C26.5865 25.9727 25.2474 26.2088 22.5693 26.6811L14.4792 28.1076C11.8011 28.5798 10.462 28.8159 9.34722 28.4751C8.36661 28.1753 7.50608 27.5727 6.88897 26.7538C6.18741 25.8228 5.95129 24.4837 5.47907 21.8056L4.36953 15.5131Z" fill="#7000FF"/>
<path d="M21.1663 11.8037C21.6487 11.9099 22.1155 12.0006 22.5735 12.1178C23.0602 12.2417 23.5425 12.3922 24.0248 12.5271C24.0934 12.547 24.12 12.5736 24.12 12.651C24.1177 14.1577 24.1332 15.6666 24.1133 17.1733C24.0912 18.7928 23.5801 20.2574 22.5956 21.545C21.4982 22.9809 20.0623 23.9057 18.3057 24.3261C17.6132 24.492 16.9074 24.5473 16.1972 24.5053C14.5091 24.4057 13.0135 23.8106 11.7347 22.7066C10.416 21.5716 9.58416 20.1424 9.25008 18.4299C9.15495 17.9432 9.11734 17.4498 9.11734 16.9542C9.11512 15.5272 9.11735 14.1024 9.11292 12.6754C9.11292 12.5802 9.1439 12.547 9.23018 12.5205C10.1506 12.2262 11.0887 11.9939 12.0378 11.8214C12.0467 11.8191 12.0555 11.8214 12.0776 11.8191C12.0776 11.8568 12.0776 11.8944 12.0776 11.9298C12.0776 13.7196 12.071 15.5117 12.0821 17.3016C12.0887 18.2043 12.2104 19.0959 12.5179 19.9521C12.7613 20.6313 13.1219 21.2375 13.6595 21.7287C14.164 22.1867 14.7547 22.4765 15.4162 22.6181C16.3521 22.8194 17.2857 22.8039 18.2039 22.5141C19.288 22.1734 20.0402 21.4521 20.5225 20.4366C20.7814 19.8946 20.9363 19.3193 21.0336 18.7286C21.142 18.0715 21.1686 17.4078 21.1686 16.744C21.1686 15.1467 21.1686 13.5471 21.1686 11.9497C21.1663 11.9076 21.1663 11.8678 21.1663 11.8037Z" fill="white"/>
<path d="M17.9338 15.1225C17.051 15.1225 16.1771 15.1225 15.2988 15.1225C15.2988 13.065 15.2988 11.0096 15.2988 8.95644C15.5731 8.87015 17.4117 8.86351 17.9338 8.9498C17.9338 11.0074 17.9338 13.065 17.9338 15.1225Z" fill="white"/>
<path d="M21.1663 11.8037C21.6487 11.9099 22.1155 12.0006 22.5735 12.1178C23.0602 12.2417 23.5425 12.3922 24.0248 12.5271C24.0934 12.547 24.12 12.5736 24.12 12.651C24.1177 14.1577 24.1332 15.6666 24.1133 17.1733C24.0912 18.7928 23.5801 20.2574 22.5956 21.545C21.4982 22.9809 20.0623 23.9057 18.3057 24.3261C17.6132 24.492 16.9074 24.5473 16.1972 24.5053C14.5091 24.4057 13.0135 23.8106 11.7347 22.7066C10.416 21.5716 9.58416 20.1424 9.25008 18.4299C9.15495 17.9432 9.11734 17.4498 9.11734 16.9542C9.11512 15.5272 9.11735 14.1024 9.11292 12.6754C9.11292 12.5802 9.1439 12.547 9.23018 12.5205C10.1506 12.2262 11.0887 11.9939 12.0378 11.8214C12.0467 11.8191 12.0555 11.8214 12.0776 11.8191C12.0776 11.8568 12.0776 11.8944 12.0776 11.9298C12.0776 13.7196 12.071 15.5117 12.0821 17.3016C12.0887 18.2043 12.2104 19.0959 12.5179 19.9521C12.7613 20.6313 13.1219 21.2375 13.6595 21.7287C14.164 22.1867 14.7547 22.4765 15.4162 22.6181C16.3521 22.8194 17.2857 22.8039 18.2039 22.5141C19.288 22.1734 20.0402 21.4521 20.5225 20.4366C20.7814 19.8946 20.9363 19.3193 21.0336 18.7286C21.142 18.0715 21.1686 17.4078 21.1686 16.744C21.1686 15.1467 21.1686 13.5471 21.1686 11.9497C21.1663 11.9076 21.1663 11.8678 21.1663 11.8037Z" fill="white"/>
<path d="M17.9338 15.1225C17.051 15.1225 16.1771 15.1225 15.2988 15.1225C15.2988 13.065 15.2988 11.0096 15.2988 8.95644C15.5731 8.87015 17.4117 8.86351 17.9338 8.9498C17.9338 11.0074 17.9338 13.065 17.9338 15.1225Z" fill="white"/>
<path d="M21.1663 11.8037C21.6487 11.9099 22.1155 12.0006 22.5735 12.1178C23.0602 12.2417 23.5425 12.3922 24.0248 12.5271C24.0934 12.547 24.12 12.5736 24.12 12.651C24.1177 14.1577 24.1332 15.6666 24.1133 17.1733C24.0912 18.7928 23.5801 20.2574 22.5956 21.545C21.4982 22.9809 20.0623 23.9057 18.3057 24.3261C17.6132 24.492 16.9074 24.5473 16.1972 24.5053C14.5091 24.4057 13.0135 23.8106 11.7347 22.7066C10.416 21.5716 9.58416 20.1424 9.25008 18.4299C9.15495 17.9432 9.11734 17.4498 9.11734 16.9542C9.11512 15.5272 9.11735 14.1024 9.11292 12.6754C9.11292 12.5802 9.1439 12.547 9.23018 12.5205C10.1506 12.2262 11.0887 11.9939 12.0378 11.8214C12.0467 11.8191 12.0555 11.8214 12.0776 11.8191C12.0776 11.8568 12.0776 11.8944 12.0776 11.9298C12.0776 13.7196 12.071 15.5117 12.0821 17.3016C12.0887 18.2043 12.2104 19.0959 12.5179 19.9521C12.7613 20.6313 13.1219 21.2375 13.6595 21.7287C14.164 22.1867 14.7547 22.4765 15.4162 22.6181C16.3521 22.8194 17.2857 22.8039 18.2039 22.5141C19.288 22.1734 20.0402 21.4521 20.5225 20.4366C20.7814 19.8946 20.9363 19.3193 21.0336 18.7286C21.142 18.0715 21.1686 17.4078 21.1686 16.744C21.1686 15.1467 21.1686 13.5471 21.1686 11.9497C21.1663 11.9076 21.1663 11.8678 21.1663 11.8037Z" fill="white"/>
<path d="M17.9338 15.1225C17.051 15.1225 16.1771 15.1225 15.2988 15.1225C15.2988 13.065 15.2988 11.0096 15.2988 8.95644C15.5731 8.87015 17.4117 8.86351 17.9338 8.9498C17.9338 11.0074 17.9338 13.065 17.9338 15.1225Z" fill="white"/>
<path d="M21.1663 11.8037C21.6487 11.9099 22.1155 12.0006 22.5735 12.1178C23.0602 12.2417 23.5425 12.3922 24.0248 12.5271C24.0934 12.547 24.12 12.5736 24.12 12.651C24.1177 14.1577 24.1332 15.6666 24.1133 17.1733C24.0912 18.7928 23.5801 20.2574 22.5956 21.545C21.4982 22.9809 20.0623 23.9057 18.3057 24.3261C17.6132 24.492 16.9074 24.5473 16.1972 24.5053C14.5091 24.4057 13.0135 23.8106 11.7347 22.7066C10.416 21.5716 9.58416 20.1424 9.25008 18.4299C9.15495 17.9432 9.11734 17.4498 9.11734 16.9542C9.11512 15.5272 9.11735 14.1024 9.11292 12.6754C9.11292 12.5802 9.1439 12.547 9.23018 12.5205C10.1506 12.2262 11.0887 11.9939 12.0378 11.8214C12.0467 11.8191 12.0555 11.8214 12.0776 11.8191C12.0776 11.8568 12.0776 11.8944 12.0776 11.9298C12.0776 13.7196 12.071 15.5117 12.0821 17.3016C12.0887 18.2043 12.2104 19.0959 12.5179 19.9521C12.7613 20.6313 13.1219 21.2375 13.6595 21.7287C14.164 22.1867 14.7547 22.4765 15.4162 22.6181C16.3521 22.8194 17.2857 22.8039 18.2039 22.5141C19.288 22.1734 20.0402 21.4521 20.5225 20.4366C20.7814 19.8946 20.9363 19.3193 21.0336 18.7286C21.142 18.0715 21.1686 17.4078 21.1686 16.744C21.1686 15.1467 21.1686 13.5471 21.1686 11.9497C21.1663 11.9076 21.1663 11.8678 21.1663 11.8037Z" fill="white"/>
<path d="M17.9338 15.1225C17.051 15.1225 16.1771 15.1225 15.2988 15.1225C15.2988 13.065 15.2988 11.0096 15.2988 8.95644C15.5731 8.87015 17.4117 8.86351 17.9338 8.9498C17.9338 11.0074 17.9338 13.065 17.9338 15.1225Z" fill="white"/>
<path d="M136.81 10.1558C134.422 10.1558 132.617 11.1295 131.718 12.597C130.812 11.1295 128.838 10.1558 126.779 10.1558C122.732 10.1558 120.667 12.7136 120.667 15.8886V23.5004H124.447V16.4235C124.447 14.9149 125.249 13.5708 127.074 13.5708C128.906 13.5708 129.853 14.8531 129.853 16.3686V23.5004H133.647V16.3686C133.647 14.8463 134.538 13.5708 136.356 13.5708C138.188 13.5708 139.039 14.9149 139.039 16.4235V23.5004H142.819V15.8886C142.812 12.7136 140.864 10.1558 136.81 10.1558Z" fill="#7000FF"/>
<path d="M159.669 18.9059V10.4095H155.93L155.958 12.4736C155.141 11.2598 153.714 10.1558 151.176 10.1558C146.812 10.1558 144.569 13.5434 144.569 16.9447C144.487 20.3871 147.025 23.809 150.991 23.809C153.09 23.809 155.011 22.8764 155.93 21.2375C156.301 22.3209 157.241 23.5073 159.189 23.5073H161.35V20.3323H160.746C159.992 20.3323 159.669 20.0511 159.669 18.9059ZM151.965 20.5311C149.817 20.5311 148.212 19.0499 148.212 16.9721C148.212 14.9217 149.817 13.4679 151.965 13.4679C154.181 13.4679 155.786 14.9217 155.786 16.9721C155.786 19.0499 154.181 20.5311 151.965 20.5311Z" fill="#7000FF"/>
<path d="M163.758 14.8738V23.5005H167.538V17.7128C167.538 15.4704 169.164 14.0303 171.236 14.0303H173.706V10.1353H171.854C169.569 10.1353 167.902 12.0828 167.538 13.2143V12.8165V10.4027H163.758V14.8738Z" fill="#7000FF"/>
<path d="M175.943 23.5004H179.723V17.0886L185.596 23.5004H190.055L183.97 16.7732L189.589 10.4095H185.143L179.723 16.5469V6.35669H175.943V23.5004Z" fill="#7000FF"/>
<path d="M194.479 17.9802C194.479 19.4202 195.227 20.874 197.642 20.874C199.858 20.874 200.18 19.5437 200.18 19.5437H204.331C204.331 19.5437 203.947 23.809 197.642 23.809C193.251 23.809 190.5 21.354 190.5 16.9721C190.5 12.5833 193.251 10.1558 197.601 10.1558C201.889 10.1558 204.654 12.5833 204.654 16.9721C204.654 17.4521 204.571 17.987 204.571 17.987H194.479V17.9802ZM194.527 15.676H200.613C200.613 14.6063 199.995 13.0908 197.594 13.0908C195.227 13.0908 194.527 14.6131 194.527 15.676Z" fill="#7000FF"/>
<path d="M213.279 20.2157C211.982 20.2157 211.515 19.6396 211.515 17.8155V13.2005H215.611V10.1626H211.515V7.54993H209.471L205.828 11.0335V13.2073H207.735V18.3161C207.735 21.9849 209.526 23.5278 213.279 23.5278H215.618V20.2225H213.279V20.2157Z" fill="#7000FF"/>
<path d="M84.2978 17.2052C84.2978 19.2762 83.1246 20.2362 81.382 20.2362C79.6394 20.2362 78.5074 19.2968 78.5074 17.2052V10.3615H74.7477V17.3355C74.7477 21.882 78.5485 23.6581 81.4094 23.6581C84.2703 23.6581 88.078 21.8752 88.078 17.3355V10.3615H84.3183L84.2978 17.2052Z" fill="#7000FF"/>
<path d="M71.5644 13.5365V10.3615H59.3456V13.5365H66.5836L59.0574 20.2431V23.4181H72.0309V20.2431H64.052L71.5644 13.5365Z" fill="#7000FF"/>
<path d="M106.904 10.1147C104.523 10.1147 102.726 11.0816 101.834 12.556C100.928 11.0816 98.9589 10.1147 96.9144 10.1147C92.8941 10.1147 90.8016 12.6726 90.8016 15.8407V23.4182H94.5612V16.3688C94.5612 14.8533 95.357 13.5229 97.182 13.5229C97.5525 13.5023 97.9229 13.5572 98.2728 13.6875C98.6227 13.8178 98.9383 14.0235 99.199 14.2909C99.4597 14.5515 99.6655 14.8738 99.7959 15.2236C99.9263 15.5733 99.9811 15.9436 99.9606 16.3139V23.4182H103.721V16.3139C103.721 14.7984 104.613 13.5229 106.417 13.5229C108.221 13.5229 109.093 14.8533 109.093 16.3688V23.4182H112.852V15.8476C112.852 12.6863 110.911 10.1216 106.87 10.1216L106.904 10.1147Z" fill="#7000FF"/>
<path d="M52.8142 17.2052C52.8142 19.2762 51.6411 20.2362 49.9122 20.2362C48.1833 20.2362 47.0238 19.2968 47.0238 17.2052V10.3615H43.2642V17.3355C43.2642 21.882 47.0513 23.6581 49.9259 23.6581C52.8005 23.6581 56.5807 21.8752 56.5807 17.3355V10.3615H52.8211L52.8142 17.2052Z" fill="#7000FF"/>
</g>
<defs>
<clipPath id="clip0_1_18505">
<rect width="215" height="32" fill="white" transform="translate(0.617554 0.719849)"/>
</clipPath>
</defs>
</svg>
